<svg version="1.1" id="Layer_1" xmlns="http://www.w3.org/2000/svg" xmlns:xlink="http://www.w3.org/1999/xlink" x="0px" y="0px"
	 width="100%" viewBox="0 0 752 768" enable-background="new 0 0 752 768" xml:space="preserve">
<path fill="#000000" opacity="1.000000" stroke="none" 
	d="
M123.770889,657.463684 
	C89.003830,649.587097 68.348137,620.600647 68.008530,588.055420 
	C67.876297,575.383240 71.423477,563.331299 77.750618,552.276489 
	C117.630394,482.598572 157.571335,412.955597 197.473862,343.290680 
	C229.346207,287.645416 261.200867,231.990005 293.043579,176.327805 
	C299.164276,165.628662 304.892517,154.693253 311.317047,144.181763 
	C336.938080,102.262085 402.055939,97.366074 430.127838,144.273361 
	C460.995483,195.852310 490.240997,248.402664 520.141907,300.559204 
	C535.132690,326.707733 549.990967,352.932220 564.967468,379.088959 
	C566.390686,381.574646 567.015991,383.682526 565.420959,386.473938 
	C553.689880,407.004089 541.990967,427.554749 530.558472,448.251617 
	C528.073364,452.750458 525.212219,454.468964 519.951172,454.442047 
	C475.128815,454.212646 430.304840,454.294891 385.481323,454.310913 
	C378.910248,454.313263 377.808990,456.031891 381.034271,461.680267 
	C403.164581,500.436676 425.197632,539.250793 447.698792,577.791321 
	C451.722260,584.682800 452.627319,589.731506 448.043243,597.002625 
	C436.327728,615.585449 425.648285,634.825867 414.737366,653.907837 
	C412.559296,657.717041 409.849884,659.162170 405.496307,659.159180 
	C316.349396,659.096924 227.202362,659.172852 138.055435,659.107849 
	C133.432663,659.104492 128.810593,658.090942 123.770889,657.463684 
M337.952728,247.418640 
	C299.468903,314.407959 260.976318,381.392242 222.504349,448.388367 
	C197.548080,491.847839 172.620514,535.323792 147.684296,578.794800 
	C145.091888,583.314026 145.856842,584.737549 151.054626,584.751221 
	C167.549240,584.794495 184.044052,584.770935 200.538788,584.769897 
	C252.855606,584.766724 305.172424,584.768494 357.489227,584.734741 
	C359.570679,584.733398 362.062164,585.469849 363.430634,583.185852 
	C364.636719,581.172791 363.327393,579.380371 362.309357,577.637817 
	C357.690338,569.731384 353.054047,561.834595 348.499237,553.891174 
	C329.951660,521.544800 311.473999,489.158234 292.842590,456.860291 
	C290.752991,453.237915 290.817505,450.331818 292.907776,446.730225 
	C304.274689,427.144775 315.665863,407.565338 326.517761,387.693909 
	C329.808990,381.667145 333.875885,379.861145 340.440094,379.895203 
	C384.246307,380.122498 428.054352,380.027832 471.861725,379.968719 
	C479.065186,379.958984 479.752686,378.702515 476.274658,372.595917 
	C442.657654,313.571686 409.028351,254.554474 375.386169,195.544601 
	C372.398041,190.303299 371.252075,190.288727 367.970886,195.284653 
	C367.241028,196.395950 366.609680,197.572601 365.946014,198.726654 
	C356.733978,214.745193 347.524261,230.765060 337.952728,247.418640 
z"/>
<path fill="#000000" opacity="1.000000" stroke="none" 
	d="
M610.081421,457.930176 
	C629.432251,491.591309 649.433716,524.489258 667.549988,558.394531 
	C690.266785,600.909668 661.104004,653.521179 613.208191,658.313049 
	C596.423157,659.992371 579.590698,658.914246 562.782288,659.069458 
	C538.627747,659.292542 514.469788,659.152771 490.313263,659.156006 
	C482.307831,659.157104 482.007874,658.621521 486.022156,651.457458 
	C497.418060,631.119629 508.916168,610.838196 520.158691,590.416016 
	C522.442566,586.267456 525.145386,584.600220 529.988647,584.666077 
	C549.976379,584.938171 569.970032,584.800476 589.961304,584.761169 
	C591.887573,584.757385 593.970764,585.320862 595.794312,583.787964 
	C596.177490,580.868469 594.151489,578.857422 592.871704,576.636292 
	C582.564209,558.748169 572.251282,540.862244 561.755615,523.084473 
	C559.815125,519.797668 559.842590,517.304443 561.755432,513.948242 
	C573.463257,493.406433 584.899231,472.709808 596.475037,452.092407 
	C597.827576,449.683350 598.695251,446.888000 601.631104,444.862152 
	C605.542419,448.410034 607.307434,453.301147 610.081421,457.930176 
z"/>
</svg>